# xmcd
# 
# Track frame offsets:
#     182
#     14267
#     33185
#     47182
#     62860
#     77960
#     91067
#     112312
#     129410
#     141347
#     157542
#     170592
#     189477
#     209317
#     220235
#     235367
#     247855
#     266010
#     284170
#     301267
#     318197
# 
# Disc length: 4431
# 
# Revision: 8
# Processed by: cddbd v1.5.2PL0 Copyright (c) Steve Scherf et al.
# Submitted via: BonkEnc v1.0.8
# 
DISCID=2c114d15
DTITLE=Milionário and José Rico - Dose Dupla Vol. 6
DYEAR=1996
DGENRE=Country
TTITLE0=Minha Prece
TTITLE1=Eterno Apaixonado
TTITLE2=Nosso Romance
TTITLE3=Meu Caminho
TTITLE4=Paixão de Minha Vida
TTITLE5=Fechei meu Coração pra Balanço
TTITLE6=Minha Casa
TTITLE7=Tudo Bem
TTITLE8=Sublime Esperança
TTITLE9=Cavalo de Aço
TTITLE10=Minha Decisão
TTITLE11=Levando a Vida
TTITLE12=Glória da Ribalta
TTITLE13=Prova do Tempo
TTITLE14=Nosso Passado
TTITLE15=Coração de Aço
TTITLE16=Explosão de Amor
TTITLE17=Pantera
TTITLE18=Porque Te Amo
TTITLE19=Mensagem de Amor
TTITLE20=Meu Sentimento
EXTD=YEAR: 1996
EXTT0=
EXTT1=
EXTT2=
EXTT3=
EXTT4=
EXTT5=
EXTT6=
EXTT7=
EXTT8=
EXTT9=
EXTT10=
EXTT11=
EXTT12=
EXTT13=
EXTT14=
EXTT15=
EXTT16=
EXTT17=
EXTT18=
EXTT19=
EXTT20=
PLAYORDER=
